<?xml version="1.0" standalone="no"?><!DOCTYPE svg PUBLIC "-//W3C//DTD SVG 1.1//EN" "http://www.w3.org/Graphics/SVG/1.1/DTD/svg11.dtd"><svg t="1560157300323" class="icon" style="" viewBox="0 0 1024 1024" version="1.1" xmlns="http://www.w3.org/2000/svg" p-id="2664" xmlns:xlink="http://www.w3.org/1999/xlink" width="200" height="200"><defs><style type="text/css">@font-face { font-family: rbicon; src: url("chrome-extension://dipiagiiohfljcicegpgffpbnjmgjcnf/fonts/rbicon.woff2") format("woff2"); font-weight: normal; font-style: normal; }
</style></defs><path d="M768 640v86.016h-86.016V640H768z m0-169.984v84.010667h-86.016v-84.010667H768z m86.016 339.968V384H512v86.016h86.016v84.010667H512v86.016h86.016v86.016H512v84.010666h342.016z m-428.032-512V213.973333H341.973333v84.010667h84.010667z m0 172.032V384H341.973333v86.016h84.010667z m0 169.984v-86.016H341.973333V640h84.010667z m0 169.984v-84.010667H341.973333v84.010667h84.010667zM256 297.984V213.973333H169.984v84.010667H256z m0 172.032V384H169.984v86.016H256zM256 640v-86.016H169.984V640H256z m0 169.984v-84.010667H169.984v84.010667H256z m256-512h425.984V896H85.973333V128h425.984v169.984z" p-id="2665"></path></svg>