<?xml version="1.0" standalone="no"?><!DOCTYPE svg PUBLIC "-//W3C//DTD SVG 1.1//EN" "http://www.w3.org/Graphics/SVG/1.1/DTD/svg11.dtd"><svg t="1560099844450" class="icon" style="" viewBox="0 0 1024 1024" version="1.1" xmlns="http://www.w3.org/2000/svg" p-id="2528" xmlns:xlink="http://www.w3.org/1999/xlink" width="200" height="200"><defs><style type="text/css">@font-face { font-family: rbicon; src: url("chrome-extension://dipiagiiohfljcicegpgffpbnjmgjcnf/fonts/rbicon.woff2") format("woff2"); font-weight: normal; font-style: normal; }
</style></defs><path d="M512 0c-282.76736 0-512 229.23264-512 512s229.23264 512 512 512 512-229.23264 512-512-229.23264-512-512-512zM512 960c-62.95552 0-122.88-13.0048-177.23392-36.4544l233.14432-262.28736c5.20192-5.85728 8.0896-13.4144 8.0896-21.25824l0-96.01024c0-17.67424-14.336-32.01024-32.01024-32.01024-112.98816 0-232.20224-117.4528-233.3696-118.62016-6.00064-6.00064-14.1312-9.37984-22.6304-9.37984l-128 0c-17.67424 0-32.01024 14.336-32.01024 32.01024l0 192c0 12.12416 6.84032 23.20384 17.69472 28.63104l110.30528 55.15264 0 187.88352c-116.06016-80.95744-192-215.42912-192-367.65696 0-68.7104 15.48288-133.79584 43.13088-192l116.85888 0c8.47872 0 16.62976-3.3792 22.6304-9.37984l128-128c6.00064-6.00064 9.37984-14.1312 9.37984-22.6304l0-77.4144c40.57088-12.0832 83.51744-18.59584 128-18.59584 70.41024 0 137.0112 16.26112 196.28032 45.19936-4.13696 3.50208-8.17152 7.168-12.04224 11.03872-36.27008 36.27008-56.23808 84.48-56.23808 135.76192s19.968 99.49184 56.23808 135.76192c36.43392 36.43392 85.21728 56.25856 135.63904 56.25856 3.1744 0 6.3488-0.08192 9.5232-0.24576 13.824 51.79392 38.74816 186.65472-8.3968 372.3264-0.45056 1.7408-0.69632 3.4816-0.83968 5.2224-81.32608 83.08736-194.70336 134.656-320.14336 134.656z" p-id="2529"></path></svg>