<?xml version="1.0" standalone="no"?><!DOCTYPE svg PUBLIC "-//W3C//DTD SVG 1.1//EN" "http://www.w3.org/Graphics/SVG/1.1/DTD/svg11.dtd"><svg t="1560098698799" class="icon" style="" viewBox="0 0 1024 1024" version="1.1" xmlns="http://www.w3.org/2000/svg" p-id="1365" xmlns:xlink="http://www.w3.org/1999/xlink" width="200" height="200"><defs><style type="text/css">@font-face { font-family: rbicon; src: url("chrome-extension://dipiagiiohfljcicegpgffpbnjmgjcnf/fonts/rbicon.woff2") format("woff2"); font-weight: normal; font-style: normal; }
</style></defs><path d="M0 0v1024h1024V0z m920.669091 273.37697v646.981818H102.4V103.020606h818.269091z" p-id="1366"></path><path d="M254.448485 143.049697a46.545455 46.545455 0 0 0-46.545455 46.545455v651.636363a46.545455 46.545455 0 1 0 93.090909 0v-651.636363a46.545455 46.545455 0 0 0-46.545454-46.545455zM626.501818 143.049697h-186.181818a46.545455 46.545455 0 0 0-46.545455 46.545455v651.636363a46.545455 46.545455 0 0 0 93.09091 0V608.193939h139.636363a232.727273 232.727273 0 0 0 0-465.454545z m0 372.363636H487.175758v-279.272727h139.636363a139.636364 139.636364 0 0 1 0 279.272727z" p-id="1367"></path></svg>